<svg width="1440" height="779" xmlns="http://www.w3.org/2000/svg"><g><path d="M-43,-68L-110,132L90,46Z" fill="#ffffdb" stroke="#ffffdb"/><path d="M-43,-68L90,46L41,-57Z" fill="#fdfee2" stroke="#fdfee2"/><path d="M-43,-68L41,-57L219,-94Z" fill="#fafde0" stroke="#fafde0"/><path d="M-43,-68L219,-94L328,-109Z" fill="#f2fad7" stroke="#f2fad7"/><path d="M41,-57L90,46L219,-94Z" fill="#f6fcdc" stroke="#f6fcdc"/><path d="M219,-94L90,46L201,117Z" fill="#f2facd" stroke="#f2facd"/><path d="M219,-94L201,117L348,38Z" fill="#ebf7c7" stroke="#ebf7c7"/><path d="M219,-94L348,38L328,-109Z" fill="#e7f5cf" stroke="#e7f5cf"/><path d="M328,-109L348,38L578,-40Z" fill="#dcf1c9" stroke="#dcf1c9"/><path d="M328,-109L578,-40L722,-33Z" fill="#cfebc4" stroke="#cfebc4"/><path d="M328,-109L722,-33L1123,-129Z" fill="#bbe2bc" stroke="#bbe2bc"/><path d="M578,-40L348,38L476,125Z" fill="#d7efba" stroke="#d7efba"/><path d="M578,-40L476,125L528,171Z" fill="#d1ecaf" stroke="#d1ecaf"/><path d="M578,-40L528,171L651,176Z" fill="#cbe9a9" stroke="#cbe9a9"/><path d="M578,-40L651,176L710,18Z" fill="#c4e6b0" stroke="#c4e6b0"/><path d="M578,-40L710,18L722,-33Z" fill="#c1e5bc" stroke="#c1e5bc"/><path d="M722,-33L710,18L850,-26Z" fill="#b6e0b6" stroke="#b6e0b6"/><path d="M722,-33L850,-26L1123,-129Z" fill="#a1d6af" stroke="#a1d6af"/><path d="M850,-26L710,18L851,112Z" fill="#afdda9" stroke="#afdda9"/><path d="M850,-26L851,112L936,-32Z" fill="#a4d7a6" stroke="#a4d7a6"/><path d="M850,-26L936,-32L1123,-129Z" fill="#97d0a9" stroke="#97d0a9"/><path d="M936,-32L851,112L1002,40Z" fill="#9dd39f" stroke="#9dd39f"/><path d="M936,-32L1002,40L1123,-129Z" fill="#92caa6" stroke="#92caa6"/><path d="M1123,-129L1002,40L1132,99Z" fill="#8bc29c" stroke="#8bc29c"/><path d="M1123,-129L1132,99L1227,26Z" fill="#84b998" stroke="#84b998"/><path d="M1123,-129L1227,26L1284,-62Z" fill="#80b29b" stroke="#80b29b"/><path d="M1123,-129L1284,-62L1553,-50Z" fill="#80a594" stroke="#80a594"/><path d="M1284,-62L1227,26L1395,17Z" fill="#80a790" stroke="#80a790"/><path d="M1284,-62L1395,17L1431,-27Z" fill="#809f8f" stroke="#809f8f"/><path d="M1284,-62L1431,-27L1553,-50Z" fill="#80988e" stroke="#80988e"/><path d="M1431,-27L1395,17L1568,116Z" fill="#80937f" stroke="#80937f"/><path d="M1431,-27L1568,116L1553,-50Z" fill="#808d80" stroke="#808d80"/><path d="M1553,-50L1568,116L1600,224Z" fill="#80866d" stroke="#80866d"/><path d="M-110,132L-129,880L-106,344Z" fill="#b3ecae" stroke="#b3ecae"/><path d="M-110,132L-106,344L-83,243Z" fill="#ebffc5" stroke="#ebffc5"/><path d="M-110,132L-83,243L90,46Z" fill="#fdffc9" stroke="#fdffc9"/><path d="M90,46L-83,243L102,275Z" fill="#f1febf" stroke="#f1febf"/><path d="M90,46L102,275L201,117Z" fill="#f2fbbb" stroke="#f2fbbb"/><path d="M201,117L102,275L250,194Z" fill="#e4f9b1" stroke="#e4f9b1"/><path d="M201,117L250,194L348,38Z" fill="#eaf7b4" stroke="#eaf7b4"/><path d="M348,38L250,194L346,226Z" fill="#e1f5ad" stroke="#e1f5ad"/><path d="M348,38L346,226L476,125Z" fill="#dff2ac" stroke="#dff2ac"/><path d="M476,125L346,226L528,171Z" fill="#d1efa5" stroke="#d1efa5"/><path d="M710,18L651,176L851,112Z" fill="#b9e1a2" stroke="#b9e1a2"/><path d="M851,112L651,176L816,258Z" fill="#aadf95" stroke="#aadf95"/><path d="M851,112L816,258L939,213Z" fill="#9ad88c" stroke="#9ad88c"/><path d="M851,112L939,213L1002,40Z" fill="#9dd38f" stroke="#9dd38f"/><path d="M1002,40L939,213L1132,99Z" fill="#92c98a" stroke="#92c98a"/><path d="M1132,99L939,213L1136,251Z" fill="#82c47f" stroke="#82c47f"/><path d="M1132,99L1136,251L1270,169Z" fill="#7ab67a" stroke="#7ab67a"/><path d="M1132,99L1270,169L1227,26Z" fill="#80b382" stroke="#80b382"/><path d="M1227,26L1270,169L1395,17Z" fill="#80a882" stroke="#80a882"/><path d="M1395,17L1270,169L1371,261Z" fill="#7ca272" stroke="#7ca272"/><path d="M1395,17L1371,261L1568,116Z" fill="#7f966e" stroke="#7f966e"/><path d="M1568,116L1371,261L1600,224Z" fill="#728d63" stroke="#728d63"/><path d="M-83,243L-106,344L102,275Z" fill="#e0fdbb" stroke="#e0fdbb"/><path d="M102,275L-106,344L120,333Z" fill="#d6fab2" stroke="#d6fab2"/><path d="M102,275L120,333L250,194Z" fill="#d8faad" stroke="#d8faad"/><path d="M250,194L120,333L266,385Z" fill="#cbf6a4" stroke="#cbf6a4"/><path d="M250,194L266,385L346,226Z" fill="#cdf5a3" stroke="#cdf5a3"/><path d="M346,226L266,385L415,332Z" fill="#bdf09c" stroke="#bdf09c"/><path d="M346,226L415,332L528,171Z" fill="#c5f09f" stroke="#c5f09f"/><path d="M528,171L415,332L550,378Z" fill="#b4eb97" stroke="#b4eb97"/><path d="M528,171L550,378L651,176Z" fill="#b7ea99" stroke="#b7ea99"/><path d="M651,176L550,378L630,412Z" fill="#a0e490" stroke="#a0e490"/><path d="M651,176L630,412L816,258Z" fill="#a0e290" stroke="#a0e290"/><path d="M816,258L630,412L830,390Z" fill="#87d985" stroke="#87d985"/><path d="M816,258L830,390L939,213Z" fill="#88d684" stroke="#88d684"/><path d="M939,213L830,390L976,410Z" fill="#73cf7b" stroke="#73cf7b"/><path d="M939,213L976,410L1123,350Z" fill="#6bc676" stroke="#6bc676"/><path d="M939,213L1123,350L1136,251Z" fill="#72c377" stroke="#72c377"/><path d="M1136,251L1123,350L1231,425Z" fill="#57b26a" stroke="#57b26a"/><path d="M1136,251L1231,425L1371,261Z" fill="#5aaa68" stroke="#5aaa68"/><path d="M1136,251L1371,261L1270,169Z" fill="#6dac70" stroke="#6dac70"/><path d="M1371,261L1231,425L1407,320Z" fill="#559d61" stroke="#559d61"/><path d="M1371,261L1407,320L1600,224Z" fill="#659360" stroke="#659360"/><path d="M1600,224L1407,320L1585,397Z" fill="#5a8757" stroke="#5a8757"/><path d="M1600,224L1585,397L1611,568Z" fill="#46784b" stroke="#46784b"/><path d="M-106,344L-129,880L-54,541Z" fill="#8dce97" stroke="#8dce97"/><path d="M-106,344L-54,541L110,471Z" fill="#b3eca5" stroke="#b3eca5"/><path d="M-106,344L110,471L120,333Z" fill="#c5f5ab" stroke="#c5f5ab"/><path d="M120,333L110,471L266,385Z" fill="#b8f09f" stroke="#b8f09f"/><path d="M266,385L110,471L192,523Z" fill="#a1e492" stroke="#a1e492"/><path d="M266,385L192,523L364,522Z" fill="#95df89" stroke="#95df89"/><path d="M266,385L364,522L415,332Z" fill="#a3e691" stroke="#a3e691"/><path d="M415,332L364,522L554,467Z" fill="#91de88" stroke="#91de88"/><path d="M415,332L554,467L550,378Z" fill="#9ae38e" stroke="#9ae38e"/><path d="M550,378L554,467L630,412Z" fill="#8adb86" stroke="#8adb86"/><path d="M630,412L554,467L632,541Z" fill="#75d17c" stroke="#75d17c"/><path d="M630,412L632,541L835,496Z" fill="#68cb76" stroke="#68cb76"/><path d="M630,412L835,496L830,390Z" fill="#6fcf7a" stroke="#6fcf7a"/><path d="M830,390L835,496L931,476Z" fill="#59c46f" stroke="#59c46f"/><path d="M830,390L931,476L976,410Z" fill="#5cc570" stroke="#5cc570"/><path d="M976,410L931,476L1144,531Z" fill="#3fb361" stroke="#3fb361"/><path d="M976,410L1144,531L1123,350Z" fill="#46b264" stroke="#46b264"/><path d="M1123,350L1144,531L1231,425Z" fill="#3ca75e" stroke="#3ca75e"/><path d="M1231,425L1144,531L1246,559Z" fill="#229750" stroke="#229750"/><path d="M1231,425L1246,559L1378,580Z" fill="#1d8a48" stroke="#1d8a48"/><path d="M1231,425L1378,580L1407,320Z" fill="#379152" stroke="#379152"/><path d="M1407,320L1378,580L1585,397Z" fill="#3a844d" stroke="#3a844d"/><path d="M1585,397L1378,580L1611,568Z" fill="#1f6e3b" stroke="#1f6e3b"/><path d="M-54,541L-129,880L-54,657Z" fill="#80b287" stroke="#80b287"/><path d="M-54,541L-54,657L118,637Z" fill="#88c88b" stroke="#88c88b"/><path d="M-54,541L118,637L110,471Z" fill="#91d78f" stroke="#91d78f"/><path d="M110,471L118,637L192,523Z" fill="#8cd689" stroke="#8cd689"/><path d="M192,523L118,637L189,678Z" fill="#7bc37e" stroke="#7bc37e"/><path d="M192,523L189,678L364,522Z" fill="#7cca7c" stroke="#7cca7c"/><path d="M364,522L189,678L430,720Z" fill="#67b56f" stroke="#67b56f"/><path d="M364,522L430,720L466,666Z" fill="#5fb36c" stroke="#5fb36c"/><path d="M364,522L466,666L554,467Z" fill="#6ec876" stroke="#6ec876"/><path d="M554,467L466,666L632,541Z" fill="#63c271" stroke="#63c271"/><path d="M632,541L466,666L733,664Z" fill="#4eae66" stroke="#4eae66"/><path d="M632,541L733,664L835,496Z" fill="#4db667" stroke="#4db667"/><path d="M835,496L733,664L838,642Z" fill="#3ba85d" stroke="#3ba85d"/><path d="M835,496L838,642L939,632Z" fill="#33a65a" stroke="#33a65a"/><path d="M835,496L939,632L931,476Z" fill="#3bb35f" stroke="#3bb35f"/><path d="M931,476L939,632L1144,531Z" fill="#2ba656" stroke="#2ba656"/><path d="M1144,531L939,632L1174,684Z" fill="#138948" stroke="#138948"/><path d="M1144,531L1174,684L1246,559Z" fill="#0e8345" stroke="#0e8345"/><path d="M1246,559L1174,684L1282,709Z" fill="#006e3a" stroke="#006e3a"/><path d="M1246,559L1282,709L1378,580Z" fill="#086f3b" stroke="#086f3b"/><path d="M1378,580L1282,709L1408,721Z" fill="#005a30" stroke="#005a30"/><path d="M1378,580L1408,721L1569,724Z" fill="#004c2a" stroke="#004c2a"/><path d="M1378,580L1569,724L1611,568Z" fill="#06522c" stroke="#06522c"/><path d="M1611,568L1569,724L1594,1028Z" fill="#002114" stroke="#002114"/><path d="M-54,657L-129,880L54,824Z" fill="#809978" stroke="#809978"/><path d="M-54,657L54,824L118,637Z" fill="#7dad7c" stroke="#7dad7c"/><path d="M118,637L54,824L189,678Z" fill="#76a974" stroke="#76a974"/><path d="M189,678L54,824L236,777Z" fill="#739b6a" stroke="#739b6a"/><path d="M189,678L236,777L331,795Z" fill="#6c9b64" stroke="#6c9b64"/><path d="M189,678L331,795L430,720Z" fill="#669d64" stroke="#669d64"/><path d="M430,720L331,795L519,862Z" fill="#5c8857" stroke="#5c8857"/><path d="M430,720L519,862L466,666Z" fill="#58925b" stroke="#58925b"/><path d="M466,666L519,862L715,774Z" fill="#4d8954" stroke="#4d8954"/><path d="M466,666L715,774L733,664Z" fill="#45975a" stroke="#45975a"/><path d="M733,664L715,774L867,798Z" fill="#35834c" stroke="#35834c"/><path d="M733,664L867,798L838,642Z" fill="#2f8c4f" stroke="#2f8c4f"/><path d="M838,642L867,798L939,632Z" fill="#248a4b" stroke="#248a4b"/><path d="M939,632L867,798L1011,779Z" fill="#1c7a41" stroke="#1c7a41"/><path d="M939,632L1011,779L1174,684Z" fill="#10783f" stroke="#10783f"/><path d="M1174,684L1011,779L1102,824Z" fill="#0b6133" stroke="#0b6133"/><path d="M1174,684L1102,824L1250,766Z" fill="#03582f" stroke="#03582f"/><path d="M1174,684L1250,766L1282,709Z" fill="#005b31" stroke="#005b31"/><path d="M1282,709L1250,766L1408,721Z" fill="#004e2a" stroke="#004e2a"/><path d="M1408,721L1250,766L1380,928Z" fill="#00361e" stroke="#00361e"/><path d="M1408,721L1380,928L1470,877Z" fill="#002315" stroke="#002315"/><path d="M1408,721L1470,877L1536,845Z" fill="#002415" stroke="#002415"/><path d="M1408,721L1536,845L1569,724Z" fill="#002e1a" stroke="#002e1a"/><path d="M1569,724L1536,845L1594,1028Z" fill="#000b09" stroke="#000b09"/><path d="M-129,880L-101,949L54,824Z" fill="#80806c" stroke="#80806c"/><path d="M54,824L-101,949L65,1020Z" fill="#7f8066" stroke="#7f8066"/><path d="M54,824L65,1020L196,933Z" fill="#777c5d" stroke="#777c5d"/><path d="M54,824L196,933L236,777Z" fill="#73845e" stroke="#73845e"/><path d="M236,777L196,933L331,795Z" fill="#6b8459" stroke="#6b8459"/><path d="M331,795L196,933L348,998Z" fill="#68764f" stroke="#68764f"/><path d="M331,795L348,998L519,862Z" fill="#5e724b" stroke="#5e724b"/><path d="M519,862L348,998L582,920Z" fill="#566f47" stroke="#566f47"/><path d="M519,862L582,920L715,774Z" fill="#497047" stroke="#497047"/><path d="M715,774L582,920L793,978Z" fill="#3f643e" stroke="#3f643e"/><path d="M715,774L793,978L867,798Z" fill="#32663d" stroke="#32663d"/><path d="M867,798L793,978L1011,990Z" fill="#235730" stroke="#235730"/><path d="M867,798L1011,990L1011,779Z" fill="#18582f" stroke="#18582f"/><path d="M1011,779L1011,990L1102,824Z" fill="#104c29" stroke="#104c29"/><path d="M1102,824L1011,990L1164,919Z" fill="#0b4122" stroke="#0b4122"/><path d="M1102,824L1164,919L1250,766Z" fill="#034325" stroke="#034325"/><path d="M1250,766L1164,919L1380,928Z" fill="#002e1a" stroke="#002e1a"/><path d="M1470,877L1380,928L1594,1028Z" fill="#00120b" stroke="#00120b"/><path d="M1470,877L1594,1028L1536,845Z" fill="#000b08" stroke="#000b08"/><path d="M65,1020L632,1026L348,998Z" fill="#63744d" stroke="#63744d"/><path d="M65,1020L348,998L196,933Z" fill="#707955" stroke="#707955"/><path d="M348,998L632,1026L582,920Z" fill="#526d45" stroke="#526d45"/><path d="M582,920L632,1026L793,978Z" fill="#42663f" stroke="#42663f"/><path d="M632,1026L1594,1028L1259,1024Z" fill="#04391e" stroke="#04391e"/><path d="M632,1026L1259,1024L1011,990Z" fill="#18512a" stroke="#18512a"/><path d="M632,1026L1011,990L793,978Z" fill="#2f5d36" stroke="#2f5d36"/><path d="M1011,990L1259,1024L1164,919Z" fill="#063b1f" stroke="#063b1f"/><path d="M1164,919L1259,1024L1380,928Z" fill="#002c18" stroke="#002c18"/><path d="M1259,1024L1594,1028L1380,928Z" fill="#001a0f" stroke="#001a0f"/></g></svg>